<?xml version="1.0" encoding="UTF-8" standalone="no"?>
<!-- Created with Inkscape (http://www.inkscape.org/) -->

<svg
   width="111.00001mm"
   height="111mm"
   viewBox="0 0 111.00001 111"
   version="1.1"
   id="svg1"
   xml:space="preserve"
   xmlns="http://www.w3.org/2000/svg"
   xmlns:svg="http://www.w3.org/2000/svg"><defs
     id="defs1" /><g
     id="layer1"
     transform="translate(-33.072915,-13.49375)"><path
       id="path1"
       style="opacity:1;fill:#00001a;fill-opacity:1;stroke:none;stroke-width:0.268092"
       d="M 66.905785,14.375602 A 33.83311,34.894161 0 0 0 33.072915,49.269489 33.83311,34.894161 0 0 0 35.153929,61.065359 35.497203,28.157775 0 0 1 66.27926,46.295373 35.497203,28.157775 0 0 1 98.240832,62.220623 33.83311,34.894161 0 0 0 100.73917,49.269489 33.83311,34.894161 0 0 0 66.905785,14.375602 Z" /><path
       id="path1-8"
       style="opacity:1;fill:#00001a;fill-opacity:1;stroke:none;stroke-width:0.268092"
       d="M 110.23953,123.42858 A 33.83311,34.894161 0 0 1 76.40665,88.534698 33.83311,34.894161 0 0 1 78.487668,76.738829 35.497203,28.157775 0 0 0 109.613,91.508815 a 35.497203,28.157775 0 0 0 31.96157,-15.925252 33.83311,34.894161 0 0 1 2.49835,12.951135 33.83311,34.894161 0 0 1 -33.83339,34.893882 z" /><path
       id="path1-7"
       style="opacity:1;fill:#00001a;fill-opacity:1;stroke:none;stroke-width:0.268092"
       d="M 143.53351,47.11126 A 35.117695,33.617752 0 0 0 108.41609,13.49375 35.117695,33.617752 0 0 0 96.544661,15.561514 28.338155,35.271253 0 0 1 111.40926,46.488718 28.338155,35.271253 0 0 1 95.381997,78.246847 35.117695,33.617752 0 0 0 108.41609,80.729288 35.117695,33.617752 0 0 0 143.53351,47.11126 Z" /><path
       id="path1-7-2"
       style="opacity:1;fill:#00001a;fill-opacity:1;stroke:none;stroke-width:0.268092"
       d="M 33.436041,90.875726 A 35.117695,33.617752 0 0 1 68.553461,57.258214 35.117695,33.617752 0 0 1 80.424899,59.325978 28.338155,35.271253 0 0 0 65.560293,90.253184 28.338155,35.271253 0 0 0 81.587574,122.01131 35.117695,33.617752 0 0 1 68.553461,124.49375 35.117695,33.617752 0 0 1 33.436041,90.875726 Z" /></g></svg>
